<?xml version="1.0" encoding="UTF-8"?>
<svg id="Layer_1" xmlns="http://www.w3.org/2000/svg" baseProfile="tiny" version="1.2" viewBox="0 0 800 666">
  <!-- Generator: Adobe Illustrator 29.5.1, SVG Export Plug-In . SVG Version: 2.1.0 Build 141)  -->
  <g id="_서울특별시_시군구_경계" data-name="서울특별시_시군구_경계">
    <path id="강남구" data-name="강남구" d="M553.63,422.79l21.77,9.22,4.28,53.19,50.43,15.9,23.22,17.75,31.41,54.96-13.09,10.46-25.47-.04-17.74,13.99-9.18-26.21-26.13-19.76-22.17,13.76-28.25,4.59-17.91-43.06-14.58,2.04-24.41-65.19-6.66-26.1-17.86-9.3,17.27-20.38,44.48-4.21,30.59,18.39Z"/>
    <path id="강동구" data-name="강동구" d="M725.7,451.5l-49.89-27.06,8.15-26.19-27.47-11.11,11.73-33.05,15.04-16.32,28.53-11.89,21.85.05,34.56-25.53,16.19-3.08,13.18,46.96,1.43,35.54-38.04,3.28-18.69,27.5-16.57,40.9Z"/>
    <path id="강북구" data-name="강북구" d="M528.39,173.8l13.8,15.4-24.44,28.03-28.95,3.07-26.32-17.64-6.49-13.25-40.45-30.24-2.33-48.96,21.94-25.63-2.18-28.72,30.51-13.53,14.47,25.69-7.56,52.94,39.29,26.37,18.71,26.47Z"/>
    <path id="강서구" data-name="강서구" d="M161.86,314.73l24.37,21.43,27.33,16.7.26,19.65-35.98,8.8,3.34,35.8-45.49,7.71-14.1-37.49-21.3,2.7-39.22-5.25-58.7-14.18-1.37-21.56,32.99-44.42,11.55-21.72,14.59-8.76-6.62-17.3,10.1-23.73,98.25,81.62Z"/>
    <path id="관악구" data-name="관악구" d="M408.55,548.13l10.75,21.76,2.46,23.01-27.31,8.99-20.07,19.71-1.02,13.34-45.81,12.08-22.72-35.43-11.95-15.68-15.8-3.21-11.08-36.05,3.19-19.65-20.95,3.8,8.25-14.19,28.5-11.8,6.12-1.7,13.44-10.73,18.07,7.82,18.84-5.28,13.94,7.82,31.47,38.08,21.68-2.69Z"/>
    <path id="광진구" data-name="광진구" d="M668.22,354.09l-11.73,33.05-37.8,39.56-24.96,10.43-18.33-5.12-21.77-9.22,31.66-76.84,11.4-28.94,23.77,5.39,20.17-9.81.33,30.95,7.32,11.29,19.94-.74Z"/>
    <path id="구로구" data-name="구로구" d="M201.71,463.65l8.66-17.31,20.39,14.58,11.03,50.05,14.7,15.64-8.25,14.19-17.65-.7-16.43-15.13-13.18.39-9.66-21.88-32.77,30.23-14.37,19.39-50.29-15.08.87-47.09,9.96-22.11,20.46,13.55,23.31-16.17,21.23-.63,29.66,15.5,2.33-17.42Z"/>
    <path id="금천구" data-name="금천구" d="M200.98,525.36l13.18-.39,16.43,15.13,17.65.7,20.95-3.8-3.19,19.65,11.08,36.05,15.8,3.21,11.95,15.68-15.06,21.07-22.04,18.5-19.81-11.82-9.8-34.26-14.81-8.79-3.23-22.81-12.59-19.99-6.51-28.13Z"/>
    <path id="노원구" data-name="노원구" d="M650.15,199.18l-37.7.03-31.04,11.7-17.24,1.39-21.98-23.1-13.8-15.4,15.47-34.62,10.46-4.26-13.11-50.95,5.68-44.55,22.5-22.06,34.27-2.8,7.81,14.02,20.9,3.3-7.93,24.02,7.26,20.89-8.9,27.43,6.34,35.97,23.24-1.87,9.34,8.05.3,25.77-11.87,27.04Z"/>
    <path id="도봉구" data-name="도봉구" d="M546.89,39.42l-5.68,44.55,13.11,50.95-10.46,4.26-15.47,34.62-18.71-26.47-39.29-26.37,7.56-52.94-14.47-25.69-1.08-15.09,14.34-26.24,26.79,5.4,5.95,18.17,31.38-5.25,6.03,20.1Z"/>
    <path id="동대문구" data-name="동대문구" d="M596.69,317.01l-11.4,28.94-26.35-5.86-31.26-25.42-23.79,6.91-13.33-5.16-.06-.02-.35-14.87,38.69-45.92,33.07-12.31,21.34-13.37-3.3,29.91,16.74,57.17Z"/>
    <path id="동작구" data-name="동작구" d="M408.55,548.13l-21.68,2.69-31.47-38.08-13.94-7.82-18.84,5.28-18.07-7.82-13.44,10.73-6.12,1.7-28.5,11.8,18.98-27.67,12.63-2.8,14.73-43.58,44.63-4.55,46.69,24.72,12.3,2.35,4.76,23.26-2.66,49.79Z"/>
    <path id="마포구" data-name="마포구" d="M255.73,305.09l50.55,31.16,16.49,20.14,48.12-9.28,1.3,18.11-21.76,37.13-13,6.01-27.5-18.61-49.41-.43-11.3-16.12-35.66-20.34-27.33-16.7-24.37-21.43,23.69-13.7,20.23-1.57,11.42-30.61,38.53,36.24Z"/>
    <path id="서대문구" data-name="서대문구" d="M380.7,330.63l-9.81,16.48-48.12,9.28-16.49-20.14-50.55-31.16,18.67-23.17,17.8,6.52,37.29-48.84,20.22-18.2,15.12,31.33-2.31,43.61,18.18,34.29Z"/>
    <path id="서초구" data-name="서초구" d="M628.44,598.22l-14.56,27.98-27.27,17.12-8.12,17.44-31.36,4.24-23.89-21.93-7.48-42.48-20.87-7.15-23,7.77-22.67-29.96-27.46,21.65-2.46-23.01-10.75-21.76,2.66-49.79-4.76-23.26,54.84-46.09,17.86,9.3,6.66,26.1,24.41,65.19,14.58-2.04,17.91,43.06,28.25-4.59,22.17-13.76,26.13,19.76,9.18,26.21Z"/>
    <path id="성동구" data-name="성동구" d="M585.29,345.95l-31.66,76.84-30.59-18.39-44.48,4.21-16.25-24.74,17.76-30.96,15.29-13.83-4.8-22.66,13.33,5.16,23.79-6.91,31.26,25.42,26.35,5.86Z"/>
    <path id="성북구" data-name="성북구" d="M542.19,189.2l21.98,23.1,17.24-1.39,1.84,19.02-21.34,13.37-33.07,12.31-38.69,45.92-28.05-6.09-19.56-29.34-18.15,2.49-23.84-15.93,19.33-14.8-5.61-41.72-15.88-25.76,17.15-11.21,40.45,30.24,6.49,13.25,26.32,17.64,28.95-3.07,24.44-28.03Z"/>
    <path id="송파구" data-name="송파구" d="M725.7,451.5l-9.92,20.19,41.35,20.41-7.82,27.02-16.95,12.22-10.09,24.58-37.53,17.89-31.41-54.96-23.22-17.75-50.43-15.9-4.28-53.19,18.33,5.12,24.96-10.43,37.8-39.56,27.47,11.11-8.15,26.19,49.89,27.06Z"/>
    <path id="양천구" data-name="양천구" d="M201.71,463.65l-2.33,17.42-29.66-15.5-21.23.63-23.31,16.17-20.46-13.55-2.25-16.02,9.43-34.33-11.61-28.44,21.3-2.7,14.1,37.49,45.49-7.71-3.34-35.8,35.98-8.8,18.11,34.12-22.18,21.45.62,18.26-8.66,17.31Z"/>
    <path id="영등포구" data-name="영등포구" d="M337.43,408.36l10.15,16.51-.12,23.14-44.63,4.55-14.73,43.58-12.63,2.8-18.98,27.67-14.7-15.64-11.03-50.05-20.39-14.58-.62-18.26,22.18-21.45-18.11-34.12-.26-19.65,35.66,20.34,11.3,16.12,49.41.43,27.5,18.61Z"/>
    <path id="용산구" data-name="용산구" d="M462.31,383.87l16.25,24.74-17.27,20.38-54.84,46.09-12.3-2.35-46.69-24.72.12-23.14-10.15-16.51,13-6.01,21.76-37.13,13.19-9.83,31.4,4.94,18.92,15.86,17.66-7.15,8.95,14.83Z"/>
    <path id="은평구" data-name="은평구" d="M365.56,175.62l-18.51,15,2.66,30.78-20.22,18.2-37.29,48.84-17.8-6.52-18.67,23.17-38.53-36.24,34.03,2.59,4.99-33.86-3.38-18.16,12.79-25.59,10.89-54.89,22.94-4.21,46.11-26.55,17.79,10.54,11.76,47.76-9.56,9.14Z"/>
    <path id="종로구" data-name="종로구" d="M490.15,301.53l.35,14.87-64.35,8.85-28.04-3.18-17.41,8.56-18.18-34.29,2.31-43.61-15.12-31.33-2.66-30.78,18.51-15,32.83-5.24,15.88,25.76,5.61,41.72-19.33,14.8,23.84,15.93,18.15-2.49,19.56,29.34,28.05,6.09Z"/>
    <path id="중구" data-name="중구" d="M490.56,316.42l4.8,22.66-15.29,13.83-17.76,30.96-8.95-14.83-17.66,7.15-18.92-15.86-31.4-4.94-13.19,9.83-1.3-18.11,9.81-16.48,17.41-8.56,28.04,3.18,64.35-8.85.06.02Z"/>
    <path id="중랑구" data-name="중랑구" d="M640.63,312.59l-20.17,9.81-23.77-5.39-16.74-57.17,3.3-29.91-1.84-19.02,31.04-11.7,37.7-.03,20.57,3.55,3.44,34.94-7.68,10.85-10.11,40.73-15.74,23.34Z"/>
  </g>
  <polyline points="161.86 282.8 161.86 314.73 186.23 336.16 213.56 352.86 249.22 373.2 260.52 389.32 309.93 389.75 337.43 408.36 347.58 424.87 347.46 448.01 394.15 472.73 406.45 475.08 461.29 428.99 478.56 408.61 523.04 404.4 553.63 422.79 575.4 432.01 593.73 437.13 618.69 426.7 656.49 387.14 668.22 354.09 660.08 318.67" fill="none" stroke="#c0f3ff" stroke-miterlimit="10" stroke-width="10"/>
</svg>
