<?xml version="1.0" encoding="UTF-8"?>
<svg id="Layer_1" xmlns="http://www.w3.org/2000/svg" baseProfile="tiny" version="1.2" viewBox="0 0 245.82 227.53">
  <!-- Generator: Adobe Illustrator 29.5.1, SVG Export Plug-In . SVG Version: 2.1.0 Build 141)  -->
  <g id="_인천광역시_시군구_경계" data-name="인천광역시_시군구_경계">
    <path id="강화군" data-name="강화군" d="M41.84,81.49l.98.79,5.29-.62.19,2.24-1.23,5.02.47,2-2.25.75-4.29-3.45-3.17-5.31,3.03-2.31.98.89ZM41.06,77.84l-3.97,1.11.49-3.12,3.48,2.01ZM26.86,66.87l.75,2.68,4.23,7.08-1.72,2.06-4.4-.37-.87-2.07-4.28-2.92-3.54.74-2.91-.73-1.05-2.36,2.98-1.19,3.21.68,5.6-3.51,2-.09ZM6.06,66.08l.07,2.38-2.92-1.44-1.52.81-1.69-2.17,1.7-2.61,4.36,3.03ZM46.51,51.54l-5.79,1.06-3.65-1.16,1.99-4.8,2.71-1.64,1.11,4.95,3.63,1.59ZM54.03,47.26l-.89,1.49-2.99-.5v-2.82s2.91-2.96,2.91-2.96l.97,4.79ZM76.7,39.03l-2.14,2.31-2.06,5.21-.49,3.1.29,4.13,1.72,2.42,1.96.68,2.4,2.95,2.91,1.9,9.09,1.7.28,1.88,2.35,1.11,1.43,2.22-1.36,6.45-1.62,2.3-3.55,1.46-1.83,2.3-3.17,2.07-1.91.23-1.66,1.72-3.49-2.97-1.49-2.98,1.17-1.37.39-3.55-1.7-1.59-1.86-3.91-1.53-1.46-7.28-3.46-2.18-1.41-1.74-3.13-4.62-3.33.34-1.5,3.62,1.59,1.74-1.7,1.14-5.63-.62-1.76.53-6.45,1.28-.94,3.89-.45,5.28-2.95,2.46.38,2.03,2.43ZM53.86,6.81l10.03,5.39,7.11.97,5.27-1.7,2.1,4.16-1.19,1.38.28,2.21-1.77.96-4.23,6.12-8.37,4.07-4.3-1.9-3.11-.23-4.33,2.04-3.74-.59-2.43,1.34-3.99,5.3-2.32-1.12-6.93-6.95-.8-2.19,1.98-.48,2.11-1.84,1.83-3.34.66-2.83-1.45-1.94,1.9-2.05-.24-2.25,6.43-5.59,2.3,1.24,3.68.07,2.85-1.42.67,1.17ZM117.25,3.26l6.12,7.54,4.44,3.05,7.25,5.75,5.7,2.29,1.32,1.22.64,3.6,1.49,1.88-.97,1.52.45,2.28,2.15,3.62,3.27,3.39-.64,3.51-2.58,3.3-1.56,3.45-.49,4.37,1.52,3.58,3.11,2.83-1.39,1.65-1,5.04.34,2.24-1.13,1.72.56,3.47,1.61,1.76,3.19.92.29,2.21-2.46.68-1.38,2.63,1.65,2.98.54,3.65,1.26,1.81,1.21,6.18,1.77-1.06,1.34,2.41-3.07.99-.46,1.5-5.15,1.43-2.04,4.79,3.08,1.67-1.82,1.3,2.69,3.7-3.06,2.62-2.51-.69-2.69-4.24,3.77-1.24-8.75-3.11-3.69-2.46-.49,2.92-5.48,1.75-.4,2.53-2.28-1.79-3.4-.56-3.21.87-12.32-.77-3.39-2.06-3.61-3.1-.63-1.65-3.37-1.75,1.02-3.31-.99-4.67-1.78-3.62,2.58.36,5-2,1.66.63,3-1.51,3.04-4.28-.4-3.41-1.53-3.51-.82-4.28-4.32-4.24-1.17-2.14,1.48-2.17-2.41-2.39-4.03-.36-.61-.86-6.42-2.19-.9-4.98-.29-7.64,1.47-10.91-.34-10.05-1.02-5.91,2.06-.68,4.56-3.34,5.27-1.69,1.76-1.68,1.77-6.85,4.62.59,4.11-.31,3.9-3.98,3.35.96,1.04,2.3Z" fill-rule="evenodd"/>
    <path id="계양구" data-name="계양구" d="M234.3,143.56l-26.24.02-1.69-5.59,2.65-.21.4-2.32,2.57.28,2.81-1.01,1.79-4.52-2.27-1.97-.94-3.69-1.74-1.95.28-1.99-4.86-1.32-1.77-1.88,1.43-1.91,6.62,1.72,3.9,1.41,1.32-1.22.47-3.34,2.62-2.01h.06-.01s3.53.59,3.53.59l1.61-1.03,1.98,1.07,1.73,4.42,2.26.4.85-2.31,2,.13,1.58-1.45,1.95,1.49,3.34.59,1.85-.8,1.44,2.24-1.29,2.4-1.91.89-.73,2.62-5.19,6.83-2.16,6.49-.24,6.93Z"/>
    <path id="남동구" data-name="남동구" d="M236.85,167.82h3.86s.58,2.77.58,2.77l-.68,4.08.34,2.76-1.96.23-1.65,3.86.66,2.64-.77,4.15-3.89.75-2.02,1.42.65,2.09-2.46,4.98-8.24,9.67-3.45,2.41-11.78-2.69-.26.44-3.73-1.39-2.56-1.67,3.99-4.3,2.66-2.04.63-2.06,4.37-4.12,2.01-2.48,1-4.13-1.54-2.58.21-1.77-3.58-1.63,1.53-6.76-2.04-2.09-1.78-.21-.36-2.51.17-.31,4.17,1.95,2.1.24,1.77-1.34,1.44-3.14,2.15,1.06,1.55,2.34,3.33-1.31,4.01,1.71,1.54,2.16,3.03-.33,1.05-1.65,3.32-.27.63-.93Z"/>
    <path id="동구" data-name="동구" d="M189.81,156.38l8.89,5.87,3.69,3.49-7.12-3.96-1.38,4.61.51,1.74-3.74.9-2.24-1.62-3.28-3.67-2.62-.55-1.33-1.31h-1.9l-.66-1.8,9.81-3.86,1.37.16Z"/>
    <path id="미추홀구" data-name="미추홀구" d="M202.39,165.74l4.2,1.9.36,2.51,1.78.21,2.04,2.09-1.53,6.76,3.58,1.63-.21,1.77-2.59.3.83,2.35-3.16.1-1.36,1.44-3.59-.1-5.72-2.37-4.46.15-1.78,1.61-3.58.32-.51.34-1.2-8.67,5.17-9.05,3.74-.9-.51-1.74,1.38-4.61,7.12,3.96Z"/>
    <path id="부평구" data-name="부평구" d="M234.3,143.56l.06,3.42-5.53.76-1.48,2.83.74,3.23-.73,3.41.2,3.51,2.79.72,3.35,3.96,2.21.82.94,1.6-.63.93-3.32.27-1.05,1.65-3.03.33-1.54-2.16-4.01-1.71-3.33,1.31-1.55-2.34-2.15-1.06-1.44,3.14-1.77,1.34-2.1-.24-4.17-1.95,1.68-3.15.62-2.77,2.66.08-.72-2.52-2.03-.98-1.11-2.83,1.21-1.43-1.3-1.65-1.92-5.48,2.21-3.02,26.24-.02Z"/>
    <path id="서구" data-name="서구" d="M159.18,117.48l2.06,1.71,3,.96-.25,1.56-3.77-1.36-1.04-2.87ZM221.69,112.06h.02-.01s-.01,0-.01,0ZM221.69,112.06h-.04l-2.62,2.01-.47,3.34-1.32,1.22-3.9-1.41-6.62-1.72-1.43,1.91,1.77,1.88,4.86,1.32-.28,1.99,1.74,1.95.94,3.69,2.27,1.97-1.79,4.52-2.81,1.01-2.57-.28-.4,2.32-2.65.21,1.69,5.59-2.21,3.02,1.92,5.48,1.3,1.65-1.21,1.43,1.11,2.83,2.03.98.72,2.52-2.66-.08-.62,2.77-1.68,3.15-.17.31-4.2-1.9-3.69-3.49-8.89-5.87-.17-4-3.21-.04-.02,1.76-2.97,1.91-6.73.11.11-7.3-.69-.98.04-9.05h-1.23l-.91-7.1,3.67-2.18-1.97-3.78-3.26.24-2.05-2.69.79-1.46-5.04-8.62,5.68-1.72,5.66-3.69,1.49-1.97,5.08,1.01,1.68-1.8,1.67-5.19,1.63-1.31.25-2.87,3.83-1,1.49-3.85,2.18-.29,5.51,1.95,2.46,1.99,1.17,2.03,4.44,2.3,3.75,4.05,1.33,3.14,2.08.51.8,2.03,3.34,3.54Z" fill-rule="evenodd"/>
    <path id="연수구" data-name="연수구" d="M205.78,207.38l4.55,2.04v3.05s-7.67,10.1-7.67,10.1l-3.42-.17-1.57,3.32-3.16,1.27-3.88-.52-1.29,1.01-6.55.05-3.44-.84-6.85.04.49-1.82-4.92-.02.02-3.53,14.02.84v2.61l7.83.03,2.52-1.09,2.08-2.71-14.01-10.93-2.32-3.62.07-13.46-3.21-1.15,2.62-3.77,9.15.04.36-1.74,3.58-.32,1.78-1.61,4.46-.15,5.72,2.37,3.59.1,1.36-1.44,3.16-.1-.83-2.35,2.59-.3,1.54,2.58-1,4.13-2.01,2.48-4.37,4.12-.63,2.06-2.66,2.04-3.99,4.3,2.56,1.67,3.73,1.39ZM193.84,222.22l2.31,2.13,1.47-.87-2.94-2.32-.84,1.06Z" fill-rule="evenodd"/>
    <path id="옹진군" data-name="옹진군" d="M107.41,136.72l-1.27,1.18-.48,2.99-3.24-1.74.63-2.27,3.15-1.4,1.21,1.24ZM127.99,136.36l.43,4.18-2.36-.08,1.3,3.02-2.49,4.99-1.71-2.6-4.84-1.46-2.87,2.52-2.82-.57-.31-1.77,1.61-3.3,2.51-2.21,2.72-.87,2.05-1.68,1.21-2.49,1.78-.92,1.91,2.75,1.88.49ZM113.35,132.73l.91,2.42-1.49,4.33-1.57,1.83-.27,2.18-3.45-.43,2.1-4.87-1.91-1.5,1.04-.23,2.92-5.3,1.72,1.57ZM68.64,125.38l5.24,2.76,1.4,1.51,3.15-.57.82,3.47,1.3,2.36,3.41,1.93,4.39.37,7.25-1.95v3.89s-1.11,1.6-1.11,1.6l-4.91-1.54-2.87-.21-6.31,1.29-2.5-1.3-2.48,2.12-.58-2.58.78-1.96-.59-3.16-2.76-1.36-1.14-2.25-2.98-2.8.49-1.62Z" fill-rule="evenodd"/>
    <path id="중구" data-name="중구" d="M97.01,201.66l-.34-3.44,2.88-1.04-2.54,4.48ZM105.93,195.46l.83,2.6,4.93,5.9,4.35,2.87-.79,4.14-2.23.91v2.18l-6.38,2.03-3.59-3.68.95-.98-.33-5.63-2.89-4.09.44-2.94,2.41-4.78,2.3,1.47ZM181.19,161.88l1.33,1.31,2.62.55,3.28,3.67,2.24,1.62-5.17,9.05,1.2,8.67-7.6-.05.78-3.77-2.18-1.41.78-1.51,2.47,1.29.76-1.42-2.96-1.55-3.57,4.42h-2.51s-.35-5.14-.35-5.14l.88-1.6,2.86-1.77-2.74-3.5,3.34-.2,7.16,3.34.94-1.86-4.59-2.29.53-1.69-1.16-3.22-2.02.72,1.07,2.98-2.3,1.6-3.2-2.4,2.14-5.08,2.11-2.07,1.26,1.57,2.6-.26ZM107.79,189.65l-.29-3.1-1.39-2.68-3.19-1.68-1.61-2.33-2.19-1.49-3.75,2.55-1.71.38-3.62-2.12-.25-4.25-3.76-2.89-.05-.07-1.1-1.72-.03-2.92,1.65-2,1.95-.38,3.27,1.1,14.7-10.16,1.88-1.08,12.29-1.09,6.95.55,1.66-.41,6.86-3.7.98-8.43,1.01-2.22,1.84.08,2.85-1.44,3.87,1.66.83,2.56,2.62.21,3.69,1.72,1.83,1.57,2.62-.21,3.98,1.79,1.55,3,2.86,2.01,2.01,5.7-4.51,3.13-2.24,2.34-6.38,1.48-6.17.83-4.63,2.33-4.23,1.4-5.3,5.18-3,4.6-15.36,10.65-5.84-.8-3.15.35ZM166.77,136.67l-.71.16-.04,7.48-6.38-.07-2.5-3.22,4.27-4.61,5.08-2.48.28,2.74Z" fill-rule="evenodd"/>
  </g>
</svg>
