<?xml version="1.0" encoding="UTF-8"?>
<svg id="Layer_1" xmlns="http://www.w3.org/2000/svg" baseProfile="tiny" version="1.2" viewBox="0 0 612.27 434">
  <style>
    path {
      fill: #cdcccc;      /* 모든 path의 배경색 */
      stroke: #ffffff;    /* 모든 path의 외곽선 색 */
      stroke-width: 2;    /* 외곽선 두께 */
    }
  </style>
  <!-- Generator: Adobe Illustrator 29.5.1, SVG Export Plug-In . SVG Version: 2.1.0 Build 141)  -->
  <g id="_전라북도_시군구_경계" data-name="전라북도_시군구_경계">
    <path id="고창군" data-name="고창군" d="M.35,355.84l4-.29,9.95-17.2,4.78-11.1,3.65-5.93,6.13.73,1.2-3.28,5.13-3.48,5.77-2.12,6.03.49,5.89-1.26,2.74-2.53,5.71-.54,2.22-.89,5.56,1.9,5.1-6.97,1.65-1.37,1.37-6.45,4.11,1.08.88-2.63,2.96-.61,6.58,2,7.7,9.28-1.5-6.72,3.71-2,1.91-1,3.65,1.28,5.03-.71,2.64-1.93,5.36.83,8.89,2.56,5.2-1.67,3.62.28,3.4,5.32-2.79,2.88,1.45,2.99-1.53,1.92-.63,6.24,4.99,5.24-5.68,3.55.07,2.23,4.15,1.22-.66,6.42-1.39,1.95,2.11,5.1.91,7.25-3.19.4-2.97,2.39-1.03,3.04-3.03,2.85-2.91-1.23-1.38,1.75,2.49,4.48,3.32,2.86-.2,6.23.92,1.93-2.12,1.69-1.77,3.23-3.44,2.89-5.7,1.71,2.94,2.72,1.02,5.78-.41,3.19-4.98,5.98-6.1-.12-2.25,7.59-3.11-.71-3.95,2.15-6.56-2.26-.87,2.92-1.8.72-.44,3.98-3.09,4.8-1.93-.84-1.23,4.11-7.35-.59-7.74-5.49-1.39-1.82-3.62,3.11-3.51-.73-1.56,1.05-.78,6.13,3.27-.44.24,3.11-2.2,5.33-2.58-1.25-2.43-3.53-3.62.28-1.24-1.2-5.31-.86-6.59,3.34-.96-2.83-2.3-.85-1.3-5.36-2.93-1.34,2.8-10.49-2.7-4.34-.43-2.84-3.75,1.67-3.06,4.41-1.78-2.16,1.63-2.01.34-8.04-2.05-.47-5.86-5.76,5.53-4.52.97-6.47-.86-2.29-4.21-4.35-1.76-4.21-3.12,2.08-7.57-1.46-1.17-3.11-2.5-.85-2.57,1.62-2.58-.9,3.27-6.89-2.92-.97Z"/>
    <path id="군산시" data-name="군산시" d="M114.44,80.63l.16,1.22-4.5,2.89-3.66.99-9.15-.42-.08-2.19,8.96-.39,8.27-2.1ZM45.88,110.54l-.41-.95-4.4-5.49.51-1.18.13-8.07,1.14-3.68,29.77-1.65,6.18-.64,1.88,1.23.15,2.91,2.5-.14-.81-3.51,7.93-.48,6.84-2.32h9.59s4.91-1.58,4.91-1.58l4.18-3.51,2.86.49,3.08,2.11,4.64,1.95,2.73-.11,4.61-3.16,2.44-5.04,1.22-4.39-2.86-1.33-3,.45,2.68-6.84,5.59-.09,3.32-1.81,13.59-1.86,2.3-1.12,5.29-7.12,7.99-1.49,10.09-3.85-.16,2.33,1.54,5.19,1.81,1.21-1.07,5.26,5.66,3.67,2.58,4.29,4.28,4.88,5.27,1.47.57,2.28-.94,4.87-2.05,1.92.22,2.87-2.68,1.51.26,3.16-7.38,5.68,2.42.73,1.08,2.17-4.41,3.58-.56,4.46-1.72,2.95-6.03,6.13-4.78,2.1-3.37-.41-2.27,2.79-5.85,3.62-13.69,4.55-.05,9.07-9.12.86-4.54-1.85-16.7,2.67-10.66,1.48-5.88.48-.72-9.77-2.88,2.78-3.7-.64-7.33.16-3.31-1.19-3.97.05-3.39-2.1-1.19-6.25-.4-7,.5-6.2,1.91-3.31-.07-3.51-9.2-3.02-2.28.24-.12,22.81-9.08-.8-4.14-3.61-.54-2.04h-4.99l.55-3.34-1.91-1.87.41-3.61-2.3-.76" fill-rule="evenodd"/>
    <path id="김제시" data-name="김제시" d="M176.45,120.98l.68,3.71,3.15,2.01,5.96-3.1,3.43-.65,4.92.53,5.47,4.5,9.45-4.17,1.22-1.38,6.64,3.03.41-2.27,4.13,5.61,10.81,2.77,1.98,4.27,1.89,2.05,3.92,4.46-.44,4.76,1.24,9.76-3.23,3.85-.19,2.08-2.55,3.48,1.26,6.61,3.01,3.42,1.68.6,3.98,3.76,3.28-.91,5.94,3.1,2.55.27,3.06,1.78,3.95.27.13,2.43,2.22,1.8,1.06,4.49-3.85,2.08-1.23,2.12-3.17.83-1.13,4.35,5.55,1.99,2.55,2.04-.07,2.57,4.33,4.22,1.73,2.68-1.49,3.65-2.87.73-1.96,3.78-3.97,5.2,3.36,3.82.2,2.36-2.18,6.29-1.13,3.34-4.22.19-3.6,1.7-3.05-.59-1.68,1-3.67-1.67-2.24-3.48-2.45-.7-3.24-3.95-2.92-.71-1.59-1.82.66-4.54-6.05-8.55-4.36-2.56-6.17-1.77-4.1,1.18-4.24-.09-2.9-7.2-3.93-4.23-1.47-.16-6.3-4.14-5.49.22-.55-2.69-3.81.21.87,2.66,2.95,2.07-.19,3.56-3.49,4.41-2.67,2.29-6.05.85-3.98-.23-6.1,3.84-.19,2.13-5.94-.48,2.13-4.91-2.95.86-2.08-2.81.79-4.7-.41-3.53-4.14.45-.33-4.53-5.25.81-1.38-2.68-2.77-9.13-3.96-10.96-13.65-4.12-12.95-4.3-2.69-6.32-.57-8.17-2.7-.31-.91-6.13-1.83-7.98,5.88-.48,10.66-1.48,16.7-2.67,4.54,1.85,9.12-.86.05-9.07,13.69-4.55,5.85-3.62,2.27-2.79,3.37.41Z"/>
    <path id="남원시" data-name="남원시" d="M478.24,305.49l2.22-.06,2.7,3.32,4.04,2.32,2.29,3.5,2.92-.35,2.56,2.63-.13,2.25,2.51,3.28,1.33,4.26,3.13,3.59.91,2.23,2.63,1.33.5,5.97-5.86,3.46.14,4.06-.84,4.55,3.95,6.63,2.89-1.12,3.71,1.91,2.74-.78,2.51,2.21-3.57,4.58.25,4.16-2.18,6.58-1.51.26-4.29,5.7-4.18,1.76-3.72,5.62-1.01,2.89.32,2.77-2.28,2.75-4.11,2.82.85,5.09,4.6,6.92-1.06,4.86-5.41,3.8-1.2,3.38-7.91,4.68-3.39.12-4.01-4.86-5.37-1.75-1.06-1.43-4.15-1.86-.32-2.61-3.74-.83-2.49-3.95-4.07-2.11-1.11-1.95-6.96-4.41-4.75.76-3.04-2.84-3.14-.69-5.19.9-1.71,1.41-7.12-.99-5.67,5.75-3.11,7.1-4.01,6.51-2.04.85-.85,2.97-2.63,2.09-.03,2.72-3.37,2.47-1.86-.62-1.42-3.87-5.52-2.57-3.75-3.03-3.29,2.01-4.59,1.6-4.89,3.93-5.63,1.46-2.19-.39-2.4-2.19-5-2.25-12.25.76-9.25-8.86-1.02-1.86-4.76-.62-1.57,1.86-1.81,6.96-1.23.89-4.43-.56-4.68-3.01-1.57-3.69,1.19-3.21.56-6.36,2.09-3.84,3.77-.46,2.75-4.21,3.24-2.99-1.62-1.09,3.02-5.85,2.17-6.25,4.42-.67,4.17.4,1.82-5.46.61-4.16,2.37-1.96,1.14-2.92,6.31,3.09,1.21-1.95,2.56.38,2.93-1.25,2.04-3.49.96-6.01,3.18-4,3.24-6.58-1.28-1.57-1.03-4.34-.47-4.38,1.67-4.59,3.68.94,1.86-.96,3.6,1.93,2.91-1.91,5.04-.86,1.72-1.8-1.34-6.11-6.5-6.15,3.07-1.04,1.15-7.53-3.05-.78-2.62-1.95,1.81-3.55,1.88,1.74,3.79-.8,2.6-3.11,2,.31,5.59,4.91,2.84,1.24,4.84-.77,3.82-5.99,3.48-.4,4.41,4.97,6.64-.59.43,2.25,5.02,3.38.76-2.68,4.87-.38,1.62,2.91,4.41,1.08,4.46,2.31-.46,3.56,6.15,7.49,2.85,1.55,1.24,5.53,4.62,1.27-.22,5.05-4.71,2.39,4.47,3.98,6.84,2.36,6.61-1.45,1.52-2.41-1.1-1.46,1.59-6,6.86-5.63.08-4.72-.77-2.37-3.05-1.44-1.08-2.99.05-4.3,1.18-.72.54-5.78,2.36-.71,2.62-3.22Z"/>
    <path id="무주군" data-name="무주군" d="M525.45,186.88l-4.75-3.68-.6-4.24-3.91-3.21-2.69.25-2.99-4.19-3.54,3.21-3.13-.16-5.38-3.26-1.95,1.88-3.55-5,.74-3.35-1.14-3.85,1.89-3.89-2.84-6.39-2,.41-5.6-6.99-.83-4.17-5.67,2.23-3.29-1.25,1.29-5.28,2.57-4.02-3.34-5.83-3.42-2.1-2.18-5.15-3.78-.33-2.21-4.83,1.82-2.24.02-5.02-2.66-6.46-3.07-2.71-1.05-2.65.15-3.73-3.73.33-1.41-3.83,3.78-3.51,1.02-4.3-1.63-3.54,2.69-1.54-1.05-5.49,1.1-2.26-.8-3.4-2.01-1-.24-3.17,3.93,1.37,2.79-.04,2.11,2.7,2.51-.29,3.59,1.5,2.78,3.62,3.3-1.98,3.56,1.04,3.63,6.68h2.68s1.64,5.51,1.64,5.51l1.48.12,1.84-3.63-.91-5.61-2.25-1.63.88-2.04,3.7.91,1.96-1.22,1.3-2.79,2.01,1.47,1.96-1.38-3.22-2.07-.57-2.94-4.47-1.07-.42-4.24.77-5.84,1.39-1.55,8.46.22,1.86,4.46,2.21,1.05,2.06,8.23,2.05,1.07,3.42-2.09-1.23-4.93,7.89-5.73,2.47,2.4.61,8.51,2.94,3.38,3.64-.76,2.76,2.03,6.42-.24,1.91,3.32,3.22-2.01,2.7,2.85,2.42-.79,1.19,2.03-1.37,2.87,2.79,1.86,7.2-2.14,1.65.96,3.94-5.32,8.9-2.03,4.69-3.19,9.2-1.99,1.18,3.12,2.03.73,2.95,3.88,3.71.63-.42,6.86,1.23,3.26-1.24,2.83,7.26,5.09-1.47,3.61,2.77,1,3.18,11.92,3.04,2.41-2.13,4.39-4.27,3.28-5.12,2.13-.26,5.45,2.32,2.23-1.26,2.64-2.28-.11-3.61,2.79-4.46-1.14-1.13,5.9-2.6,2.51,1.22,4.4-3.61,2.91-1.27,4.74-3.71-1.34-2.54.3-2.93,2.95v1.47s-4.15,2.3-4.15,2.3l-2.04-1.8-5.06,3.19-1.84-.11-3.45,2.74-2.63,3.88-6.17,1.44-2.16-2.34-3.33-1.52-2.62,4.68.59,2.77-2.88,4.46-1.14,4-2.55,1.17.31,2.43-1.97,4.35-4.1,3.01-3.99,1.6Z"/>
    <path id="부안군" data-name="부안군" d="M54.64,230.42l4.61,3,6.96-7.72,4.84-3.22,2.05-2.87,3.99-8.24,3.1-2.37-18.48-17.63,4.09-4.8,6.63-8.72,5.64-4.14,8.98-2.64,4.35-.34,3.16,1.03,16.18,9.2,5.73.49-3.45-8.3,12.95,4.3,13.65,4.12,3.96,10.96,2.77,9.13,1.38,2.68,5.25-.81.33,4.53,4.14-.45.41,3.53-.79,4.7,2.08,2.81,2.95-.86-2.13,4.91,5.94.48-.48,1.39,4.74,7.59-1.42,5.07-2.4,1.32-.72,2.22-5.35-1.44-2.18,1-1.27,2.5-2.98-4.54-4.27,4.85-1.96-.38-4.3-3.97-3.38,5.4-.72,5.5-4.79-2.95-2.99,1.08-2.74,7.69-3.88.47-2.19,7.91-.54,8.47-.93,3.29.95,4.75-.34,3.11,1.16,1.55-.1,4.14-2.5-.06-1.12,2.18,1.05,3.1-5.36-.83-2.64,1.93-5.03.71-3.65-1.28-1.91,1-2.07-1.38-2.99-6.42-1.32-.82-2.65,3.15-9.81-2.84-9.63-.29-4.31-1.88-3.2,1.08-4.37-1.31-7.33,2.71-4.73-.62-7,3.34-5.17-.74-3.3.71-4.17-3.46h-2.75s-1.57-4.23-1.57-4.23l-3.5-3.77-4.21-.56-1.8-3.51-1.99-.5,1.67-3.79,2.41-.28-.92-8.01-3.99-.73,5.38-3.44,4.36-1.32,4.62-5,3-.79,7.73-6.59.49-2.11,2.35-2.04,3.99-6.1,2.66-.19,6.5-3.39.59-.41Z" fill-rule="evenodd"/>
    <path id="순창군" data-name="순창군" d="M182.25,351.4v.02l-.08.02.08-.04ZM182.25,351.4v-.06l-1.4-1.11-1.99-5.28.45-3.16,4.66.44,3.27-2.01,3.28,2.68,2.25-1.25,7.04,2.05,4.65-2.97,2.16,1.77,3.3-1.27.03-3.07,1.67-2.54-2.47-3.11-.07-4.04-1.4-.85-.77-5.09,1.17-2.97,6.55-2.05,2.57-4.78,4.02-5.5,5.11-3.43,2.53,1.28.38,2.78,2.37,3.69,3.31.43,5.07-.95,2.88-1.76,4.78,6.36,5.08,2.16.39,1.63,4.84,3.8-.42,3.19,1.41,1.17,2.91-.92,2.28-2.54,6.64,4.85,3.56.45,7.43-1.67,2.65,2.6,5.45.29,2.15,5.79-.09,2.93,2.76,4.83-.36,3.54,1.69,4.04,5.25.2,3.37-.71,3.24,1.63,2.09-2.85-.96-3.83,8.29-7.61,3.09-.85,5.66.1,4.77,5.68,3.43.72,3.35-3.76,5.98,2.3,1.86,2.67,3.23.74,5.32-2.87,3.38,1.57,2.46-1.19,4.23.16,1.03,4.34,1.28,1.57-3.24,6.58-3.18,4-.96,6.01-2.04,3.49-2.93,1.25-2.56-.38-1.21,1.95-6.31-3.09-1.14,2.92-2.37,1.96-.61,4.16-1.82,5.46-4.17-.4-4.42.67-2.17,6.25-3.02,5.85,1.62,1.09-3.24,2.99-2.75,4.21-3.77.46-2.09,3.84-.56,6.36-5.73,2.89-2.03-.79-3.24,2.4-3.56,4.74-2.04,1.23-.03,2.3-6.89,1.19-1.67,2.58-3.84,1.7-4.81.35-3.51-1.32-3.09-2.48-7.21-2.93-1.58.5-2.97-2.99-4.12.28-3.22-2.63,3.29-3.85.58-5.43,4.15,2.05,3.27-1.7-1.15-2.95,1.03-3-1.93-2.29,2.26-4.7-2.9-2.38.31-3.09-2.76-3.37-4.27,2.74-3.4-1.51-.14-2.37-3.41-2.68-1.41-4.94,6.08.6,2.17-1.75-.73-2.54,1.3-5.72,1.72-4.03-3.18-3.57-3-.17-.2-5.78-.74-1.2-.07-9.58-4.46,1.17-4.01,3.22-4.64-3.38-2.09,3.61,1.04,1.69-2.52,7.15-3.83,1.54-1.55,5.09-4.24-.54v6.59l1.85,3.74.19,3.3-5.55,2.9-3.66-.87-5.19,1.17-2.64-.16-2.2-2.86.03-2.94-5.23,1.92.99-3.94-1.39-2.88-5.97-3.78,1.03-3.37-2.76-1.67,1.07-4.71-1.38-2.89-4.95-1.59-1.5-2.46-4.95-2.87Z" fill-rule="evenodd"/>
    <path id="완주군" data-name="완주군" d="M274.38,272.21l-.12.39.04-.18.08-.21ZM274.38,272.21l.26-.86.5-.49-.48.71-.23.5-.05.14ZM265.18,168.1l-.88,1.58,1.07,7.29-1.28,2.62-.04,5.59-3.95-.27-3.06-1.78-2.55-.27-5.94-3.1-3.28.91-3.98-3.76-1.68-.6-3.01-3.42-1.26-6.61,2.55-3.48.19-2.08,3.23-3.85-1.24-9.76,4.25,2.79,3.01-3.19,1.72,2.7-.44,1.87,2.92,3.82,4.44-1.42,1.81.41,3.69,9.79h-2.82s-.24,3.02-.24,3.02l6.77,1.2ZM275.14,270.86l.03-.03-1.17-2.13,1.45-3.78-1.66-2.31-.53-4.1.59-3.66-4.34-4.54,1.22-2.95-5.75-4.3-1.72-.45,2.18-6.29-.2-2.36-3.36-3.82,3.97-5.2,1.96-3.78,2.87-.73,1.49-3.65,2.64-3.97,1.74-.52.16-4.05,2.7-3.53,5.86,1.55,5.81-3.21,2.36-2.58,4.05.76,1.51-3.79-.52-3.13,2.35-3.25,3.06-1.9,3.77,1.49,3.18,2.7,3.86-1.92,2.62,2.3,1.78-.15,1.26-5.23,3.88-4.39,2.4-3.95,4.56-3.45,1.2-5.7-1.63-1.23-4.67.53-3.22-4.09.98-5.91-2.16-2.15-2.77-6.53-1.62-1.4-2.72,2.68-3.96,1.05-3.92-.17-.62-2.92-2.58-5.69-3.8-4.3-.73-4.36-1.55-3.76-4.64-3.63-3.82.42-1.57-.85-4.44,2.57-4.38,1.47-5.4.83-2.73-2.19-8.29-1.02-2.58,3.62-2.43-.26-2.13-2.71-1.75.22-2.33-4.16.27-2.25-1.84-3.5,2.94-.58,2.04-3.56,5.62,1.77,5.05,3.29,4.15-3.26,1.53.38,4.6-4.47,1.23-5.1,4.89-10.26-.94-3.96,2.28-8.88-.85-4.7,7.41-5.01.04-3.2-1.77-4.41-2.19-1.89.22-3.23,6.32-7.48,1.55-3.83,1.79-2.05-3.55-4.47,1.21-2.28-.05-5.67,1.17-2.27,3.77-2.16,5.14,3.45,5.2-1.79,4.71-3.83,3.36,3.51,3.03,1.01,1.72-1.35,1.1-5.92,2.94-.23,1.14,1.56,4.56-.78,3.79,2.61,2.92,4.42,2.61,1.13,2.48-2.21-3.55-4.55.07-4.24,1.71-1.29.74-2.92,3.1.14,2.11,2.12,3.97.65,4.42-2.39,3.74-.77,1.1-4.56,3.43-1.55,2.25,2.72,3.13.36,1.91-5.15,6.94.49,1.76,5.62,2.5.75,1.8,4.08-2.94,5.05.7,1.63,4.34,2.91-1.28,3.97,1.95,2.72-1.02,2.42,2.04,3.01-1.51,1.99.11,3.98,3.98,4.05,1.27,2.3-.05,3.33,1.92,1.97-.71,3.89-3.69.89-2.88,4.95-.07,2.99,1.25,2.73v4.28l-4.41,1.27-1.45,3.06-2.23,1.09-.73,4.69,1.46,1.56-.52,4.75,3.49,4.87-2.24,4.84,1.75,3.44-1.14,3.11.84,2.51-.79,4.8-4.11,2.21-2.49-.17-.31,4.95.93,5.61-.94,2.32.41,4.85-3.61,1.26-2.29,4,2.47,3.09-1.74,4.79-3.85,2.59-1.19,6.04.7,3.05-5.41,3.53.51,2.3-1.44,1.78,3.34,4.31-4.8,1.85-2.15,2.11-4.83,1.99.44,2.92-1.7,2.8-2.67.41-.64,2.59-3.78,2.66-3.9,5.24.58,3.98,2.99,3.33-.88,3.17,2.13,2.73-2.46,6.03,2.15,4.89.64,8.29-4.49,1.54-1.96-2.1-.36-2.71-7.03-7-5.45,1.08-2.08-2.47-.02-4.45-3.56-2.86-3.6-.89-.81-2.24-3.6-1.09-2.66,1.85-5.1,5.02-3.33-.21-4.66,2.61-.87,8.62-4.99,5.54-.42,5.81,1.14,3.89,1.71,1.44-1.29,5.02,2.74,5.41-1.16,4.14-2.25,2.51-2.93,1.07-1.91,3.41-3.75,3.49-5.29-1.17-.08.07Z" fill-rule="evenodd"/>
    <path id="익산시" data-name="익산시" d="M291.73,46.27l3.55,4.47-1.79,2.05-1.55,3.83-6.32,7.48-.22,3.23,2.19,1.89,1.77,4.41-.04,3.2-7.41,5.01.85,4.7-2.28,8.88.94,3.96-4.89,10.26-1.23,5.1-4.6,4.47-1.53-.38-4.15,3.26-5.05-3.29-5.62-1.77-2.04,3.56-2.94.58,1.84,3.5-.27,2.25,2.33,4.16-4.44-.09-11.04,2.34-1.2,4.56-1.89-2.05-1.98-4.27-10.81-2.77-4.13-5.61-.41,2.27-6.64-3.03-1.22,1.38-9.45,4.17-5.47-4.5-4.92-.53-3.43.65-5.96,3.1-3.15-2.01-.68-3.71,4.78-2.1,6.03-6.13,1.72-2.95.56-4.46,4.41-3.58-1.08-2.17-2.42-.73,7.38-5.68-.26-3.16,2.68-1.51-.22-2.87,2.05-1.92.94-4.87-.57-2.28-5.27-1.47-4.28-4.88-2.58-4.29-5.66-3.67,1.07-5.26-1.81-1.21-1.54-5.19.16-2.33,2.39-3.37,1.08-9.23.29-12.54,3.51-10.52,3.09-4.2,4.57-1.38,4.2,2.98,3.53.16,4.89-3.16,3.03-4.12,7.28-2.89,2.62.16,5.79,3.96,8.54.89,3.01-1.89,2.42,2.42,2.07-1.11,1.37,4.24,1.78,1.63,4.65-1.24,4.16.19-.09,1.72,4.4,4.31,2.83.8-.82,4.06-1.57.58,1.4,7.97-.2,2.64,4.66,5.3,1.29-.09,6.35,6.62,4.79-2,8.45,6.21,3.43-1.1Z"/>
    <path id="임실군" data-name="임실군" d="M416.88,270.98l-4.34,3.79-6.46-.18-4.1,1.07-5.47-.94-2.18.76-3.71,3.54.93,4.09-1.32,5.81,2.15,1.52.64,3.86-6.22,4.63.06,4.34-2-.31-2.6,3.11-3.79.8-1.88-1.74-1.81,3.55,2.62,1.95,3.05.78-1.15,7.53-3.07,1.04,6.5,6.15,1.34,6.11-1.72,1.8-5.04.86-2.91,1.91-3.6-1.93-1.86.96-3.68-.94-1.67,4.59.47,4.38-4.23-.16-2.46,1.19-3.38-1.57-5.32,2.87-3.23-.74-1.86-2.67-5.98-2.3-3.35,3.76-3.43-.72-4.77-5.68-5.66-.1-3.09.85-8.29,7.61.96,3.83-2.09,2.85-3.24-1.63-3.37.71-5.25-.2-1.69-4.04.36-3.54-2.76-4.83.09-2.93-2.15-5.79-5.45-.29-2.65-2.6.07-5.12-3.36-.68-1.46-3.29,3.17-3.21,4.42.71-.28-2.92-2.73-1.98-3.66-1.15-6.64-3.28,3.35-9.6-3.1-4.73-.51-2.83,8.04-2.86.69-2.4-1.49-4.45-3.84-4.7-.18-2.66.38-1.25.58-.56,5.29,1.17,3.75-3.49,1.91-3.41,2.93-1.07,2.25-2.51,1.16-4.14-2.74-5.41,1.29-5.02-1.71-1.44-1.14-3.89.42-5.81,4.99-5.54.87-8.62,4.66-2.61,3.33.21,5.1-5.02,2.66-1.85,3.6,1.09.81,2.24,3.6.89,3.56,2.86.02,4.45,2.08,2.47,5.45-1.08,7.03,7,.36,2.71,1.96,2.1,4.49-1.54-.64-8.29-2.15-4.89,2.46-6.03-2.13-2.73.88-3.17-2.99-3.33-.58-3.98,3.9-5.24,3.78-2.66.64-2.59,2.67-.41.4,1.79-2.63,2.42-.33,2.39,1.36,2.93,2.32,1.83,2.82,6.22.02,2.9,2.61,1.99-.28,1.73,2.7,6.09-1.04,6.86,1.35,2.02-2.56,6.65,4.09,2.19,3.39-1.03,5.02,4.14,1.99,6.54,1.92,1.42,3.2-2.08,4.52-.18,3.82-1.79,4.85,3.21,3.74-.45.61,4.76,4.35-.47,1.75,1.99,3.06.55,8.51,4.88,2.99-.8,1.81,3.79-.9,2.29,2.38,3.99Z"/>
    <path id="장수군" data-name="장수군" d="M525.45,186.88l-6.13,5.35-2.21,4.65-4.09-1.45-1.52,1.29-1.45,4.05.57,2.47-.75,3.42.55,3.85-1.13,2.08,1.13,6.37-1.33,4.58.46,2.99-4.75,3.1-1.57,2.53-2.18,6.1-.5,8.51-4.17,2.99.22,3.74-3.03,2.98-.9,4.05,1.88,2.38-.09,3.16,4.58,6.72-5.93,1.82-2.73,2.83-.92,5.27-1.91,2.02,1.55,5.58-6.24,5.16-3.01,4.52-1.61,5.5-2.62,3.22-2.36.71-.54,5.78-1.18.72-.05,4.3,1.08,2.99,3.05,1.44.77,2.37-.08,4.72-6.86,5.63-1.59,6,1.1,1.46-1.52,2.41-6.61,1.45-6.84-2.36-4.47-3.98,4.71-2.39.22-5.05-4.62-1.27-1.24-5.53-2.85-1.55-6.15-7.49.46-3.56-4.46-2.31-4.41-1.08-1.62-2.91-4.87.38-.76,2.68-5.02-3.38-.43-2.25-6.64.59-4.41-4.97-3.48.4-3.82,5.99-4.84.77-2.84-1.24-5.59-4.91-.06-4.34,6.22-4.63-.64-3.86-2.15-1.52,1.32-5.81-.93-4.09,3.71-3.54,2.18-.76,5.47.94,4.1-1.07,6.46.18,4.34-3.79,2.89,1.62,4.36.12,3.4-1.77,2.74.42.58-3.78-1.53-4.39,3.09-4.85.07-3.82,1.05-3.28-5.12-3.26-1.92-2.9,3.03-5.83-.82-4.15,4.95-3.88.65-2.77-.99-6.2,3.05-1.94,3.52-6.16,4.17-3.07,2.83-3.24,4-1.84,1.68-2.95-1.39-1.53-2.54-5.45-.83-4.67.84-2.83-.91-2.97,1.12-4.68,1.9-1.43.42-3.35,1.37-1.75,5.57-.28,2.75,3.46,4.09-.72,2.56,4,4.48,2.7,3.48.52,5.56-4.53,2.91-1.23,1.45-3.26-.03-2.73,2.08-7.08,5.12-3.97,1.14,3.85-.74,3.35,3.55,5,1.95-1.88,5.38,3.26,3.13.16,3.54-3.21,2.99,4.19,2.69-.25,3.91,3.21.6,4.24,4.75,3.68Z"/>
    <path id="전주시" data-name="전주시" d="M326.64,180.01l-7.04-4.55-3.44.38-1.71,2.19-2.97.18-1.83-1.51-2.6-4.87-5.45-5.89-3.28-.45-3.87,1.43-4.78,3.21.68-3.8-.78-1.84-3.44-3.14-2.01.2-3.77-2.77-1.13,2.41-4.77.14-1.57,2.48-5.82,3.97-1.88.32-6.77-1.2.24-3.01h2.82s-3.69-9.8-3.69-9.8l-1.81-.41-4.44,1.42-2.92-3.82.44-1.87-1.72-2.7-3.01,3.19-4.25-2.79.44-4.76-3.92-4.46,1.2-4.56,11.04-2.34,4.44.09,1.75-.22,2.13,2.71,2.43.26,2.58-3.62,8.29,1.02,2.73,2.19,5.4-.83,4.38-1.47,4.44-2.57,1.57.85,3.82-.42,4.64,3.63,1.55,3.76.73,4.36,3.8,4.3,2.58,5.69.62,2.92,3.92.17,3.96-1.05,2.72-2.68,1.62,1.4,2.77,6.53,2.16,2.15-.98,5.91,3.22,4.09,4.67-.53,1.63,1.23-1.2,5.7-4.56,3.45-2.4,3.95-3.88,4.39-1.26,5.23-1.78.15-2.62-2.3-3.86,1.92-3.18-2.7-3.77-1.49-3.06,1.9-2.35,3.25.52,3.13-1.51,3.79-4.05-.76-2.36,2.58-5.81,3.21-5.86-1.55-2.7,3.53-.16,4.05-1.74.52-2.64,3.97-1.73-2.68-4.33-4.22.07-2.57-2.55-2.04-5.55-1.99,1.13-4.35,3.17-.83,1.23-2.12,3.85-2.08-1.06-4.49-2.22-1.8-.13-2.43.04-5.59,1.28-2.62-1.07-7.29.88-1.58,1.88-.32,5.82-3.97,1.57-2.48,4.77-.14,1.13-2.41,3.77,2.77,2.01-.2,3.44,3.14.78,1.84-.68,3.8,4.78-3.21,3.87-1.43,3.28.45,5.45,5.89,2.6,4.87,1.83,1.51,2.97-.18,1.71-2.19,3.44-.38,7.04,4.55Z"/>
    <path id="정읍시" data-name="정읍시" d="M263.26,242.61l1.72.45,5.75,4.3-1.22,2.95,4.34,4.54-.59,3.66.53,4.1,1.66,2.31-1.45,3.78,1.17,2.13-.51.74-.23.5-.13.35-.04.18.18,2.66,3.84,4.7,1.49,4.45-.69,2.4-8.04,2.86.51,2.83,3.1,4.73-3.35,9.6,6.64,3.28,3.66,1.15,2.73,1.98.28,2.92-4.42-.71-3.17,3.21,1.46,3.29,3.36.68-.07,5.12-7.43,1.67-3.56-.45-6.64-4.85-2.28,2.54-2.91.92-1.41-1.17.42-3.19-4.84-3.8-.39-1.63-5.08-2.16-4.78-6.36-2.88,1.76-5.07.95-3.31-.43-2.37-3.69-.38-2.78-2.53-1.28-5.11,3.43-4.02,5.5-2.57,4.78-6.55,2.05-1.17,2.97.77,5.09,1.4.85.07,4.04,2.47,3.11-1.67,2.54-.03,3.07-3.3,1.27-2.16-1.77-4.65,2.97-7.04-2.05-2.25,1.25-3.28-2.68-3.27,2.01-4.66-.44-.45,3.16,1.99,5.28,1.4,1.11v.08l-.08.02-2.34.1-5.33-2.32-3.21.9-.96-2.56.8-5.1-4.79-.92-1.46-2.96-3.71.25-1.51,1.5-.63,3.52.45,3.72-4.27.39-6.26-.26-2.73-1.15-3.85,1.35-.91-7.25-2.11-5.1,1.39-1.95.66-6.42-4.15-1.22-.07-2.23,5.68-3.55-4.99-5.24.63-6.24,1.53-1.92-1.45-2.99,2.79-2.88-3.4-5.32-3.62-.28-5.2,1.67-8.89-2.56-1.05-3.1,1.12-2.18,2.5.06.1-4.14-1.16-1.55.34-3.11-.95-4.75.93-3.29.54-8.47,2.19-7.91,3.88-.47,2.74-7.69,2.99-1.08,4.79,2.95.72-5.5,3.38-5.4,4.3,3.97,1.96.38,4.27-4.85,2.98,4.54,1.27-2.5,2.18-1,5.35,1.44.72-2.22,2.4-1.32,1.42-5.07-4.74-7.59.48-1.39.19-2.13,6.1-3.84,3.98.23,6.05-.85,2.67-2.29,3.49-4.41.19-3.56-2.95-2.07-.87-2.66,3.81-.21.55,2.69,5.49-.22,6.3,4.14,1.47.16,3.93,4.23,2.9,7.2,4.24.09,4.1-1.18,6.17,1.77,4.36,2.56,6.05,8.55-.66,4.54,1.59,1.82,2.92.71,3.24,3.95,2.45.7,2.24,3.48,3.67,1.67,1.68-1,3.05.59,3.6-1.7,4.22-.19,1.13-3.34Z"/>
    <path id="진안군" data-name="진안군" d="M453.22,87.38l1.41,3.83,3.73-.33-.15,3.73,1.05,2.65,3.07,2.71,2.66,6.46-.02,5.02-1.82,2.24,2.21,4.83,3.78.33,2.18,5.15,3.42,2.1,3.34,5.83-2.57,4.02-1.29,5.28,3.29,1.25,5.67-2.23.83,4.17,5.6,6.99,2-.41,2.84,6.39-1.89,3.89-5.12,3.97-2.08,7.08.03,2.73-1.45,3.26-2.91,1.23-5.56,4.53-3.48-.52-4.48-2.7-2.56-4-4.09.72-2.75-3.46-5.57.28-1.37,1.75-.42,3.35-1.9,1.43-1.12,4.68.91,2.97-.84,2.83.83,4.67,2.54,5.45,1.39,1.53-1.68,2.95-4,1.84-2.83,3.24-4.17,3.07-3.52,6.16-3.05,1.94.99,6.2-.65,2.77-4.95,3.88.82,4.15-3.03,5.83,1.92,2.9,5.12,3.26-1.05,3.28-.07,3.82-3.09,4.85,1.53,4.39-.58,3.78-2.74-.42-3.4,1.77-4.36-.12-2.89-1.62-2.38-3.99.9-2.29-1.81-3.79-2.99.8-8.51-4.88-3.06-.55-1.75-1.99-4.35.47-.61-4.76-3.74.45-4.85-3.21-3.82,1.79-4.52.18-3.2,2.08-1.92-1.42-1.99-6.54-5.02-4.14-3.39,1.03-4.09-2.19,2.56-6.65-1.35-2.02,1.04-6.86-2.7-6.09.28-1.73-2.61-1.99-.02-2.9-2.82-6.22-2.32-1.83-1.36-2.93.33-2.39,2.63-2.42-.4-1.79,1.7-2.8-.44-2.92,4.83-1.99,2.15-2.11,4.8-1.85-3.34-4.31,1.44-1.78-.51-2.3,5.41-3.53-.7-3.05,1.19-6.04,3.85-2.59,1.74-4.79-2.47-3.09,2.29-4,3.61-1.26-.41-4.85.94-2.32-.93-5.61.31-4.95,2.49.17,4.11-2.21.79-4.8-.84-2.51,1.14-3.11-1.75-3.44,2.24-4.84-3.49-4.87.52-4.75-1.46-1.56.73-4.69,2.23-1.09,1.45-3.06,4.41-1.27v-4.28l-1.25-2.73.07-2.99,2.88-4.95,3.69-.89,3.03.84,3.87,2.71,3.25,3.64,2.51-2.77,2.49-.47,2.55-3.82,6.15-3.43,1.03,5.17-.78,2.35.91,2.79,2.54.54,1.86,4.62.2,2.92,3.34,5,2.95-.33,1.83-2.1,3.1,3.79,4.85,1.18,2.74-4.01,2.03-.6,3.03,3.93,2.74-1.83,4.54-.94Z"/>
  </g>
</svg>
