<?xml version="1.0" encoding="UTF-8"?>
<svg id="Layer_1" xmlns="http://www.w3.org/2000/svg" baseProfile="tiny" version="1.2" viewBox="0 0 785.17 423.93">
  <!-- Generator: Adobe Illustrator 29.5.1, SVG Export Plug-In . SVG Version: 2.1.0 Build 141)  -->
  <g id="_제주특별자치도_시군구_경계" data-name="제주특별자치도_시군구_경계">
    <path id="서귀포시" data-name="서귀포시" d="M7.32,320.69l3.11-2.99-.74-3.76,3.24-2.08,5.41.21,11.37-3.83.37-5.38,11.22,3.98,17.69,9.3,7.78,3.2,7.86,9.01,6.03,4.38-1.69-11.77,3.96-5.94,6.11-5.05,20.13-5.36,5.66-2.62.39-2.19,5.46-2.21,1.78-3.69,4.92-3.86,3.97-13.15,3.7-.62,5.64-4.7,11.99-.75,5.32,1.02,5.35-7.02,12.08-12.41,9.96,3.5,6.57-.88,8.42.51,8.24-6.53,5.15.53,10.01,3.48,4.66-1.28,10.33,1.42,1.88,1.69,8.22-.62,10.77,1.46,7.47-5.78,1.38-4.38-.75-4.8,2.25-2.4,8.52-2.83,11.75.74,5.28-1.43,8.16,3.56,9.28-2.74,6.47,5.23,8.41-5.56,9.24,1.44,2.38-2.7,8.28.49,7.02-2.65,7.57-.15,18.46-11.86,10.81,2.32,9.52-.24,7.09-1.94,7.01-.61,17.1-8.94,10.34-1.01,7.06-2.07,1.43-5.92,7.04-4.24,1.95,1.48,17.23-2.63,1.54-5.02,5.33-2.88,8.65,1.88,17.8-14.72,11.7-6.76,8.98-3,7.95.07,14.08-5.46,1.48,2.67,7.82,4.84,7.4.84,11.72-2.09,7.33-4.64,8.86-8.6,5.34-2.09,4.98-7.4h4.15l6.17,2.12,7.37-5.43,10.09-2.72,4.22.13,3.72-7.46,3.91-.53,7.32-5.38,9.31-4.28,7.77-1.33,3.22-4.36,5.39-1.42,7.28-4.59,1.45-2.91,8.6-2.4,2.98-4.13,4.14.6,9.09-3.18,3.56.53,1.74,3.35,5.9.69,1.67,5.94,8.44,5.2,1.65,5.75-.67,5.67,1.71,4.61,5.28-3.24,2.91-6.36-3.66-3.96,1.8-5.31,5.36-1.85,1.13,10.54,2.89,3.24,5.65,2.38-1.97,5.13-5.66-2.81-2.94-3.77-4.16,2.25.02,3.3-7.48,8.11-.18,10.71,4.78,6.29,4.1.86,4.78,4.34-6.95,8.13-5.99-4.44,2.22-4.86-1.25-3.9-3.82-1.42-4.67,2.98,2.53,6.21-3.61,3.76.3,3.55-3.12,3.65-.74,7.31-2.28,5.67-5.43,5.15,4.38,4.32-.07,4.85-2.42,4.32-7.01,2.54-4.54.25-4.47,3.78-4.59,1.02-1.88,4.79-8.35,8.54-1.25,7.17-4.2,2.15,1.56,7.46-.48,3.33-5.45,7.79-2.65.45-3.77,7.49-5.68,5.81-2.24-.48-4.13,3.72-.84,4.78,1.54,3.62,4.09-.1-2.58,6.43-3.25,2.35-9.06,10.44-3.6,2.59-7.33,1.37-6.4-2.53-8.61,6.36-1.59-2.46-13.13,1.43-6.25-3.7-8.33-.33-4.13,6.54-6.04,2.2-1.54,7.63-4.74.9-2.76,3.82-6.25,3.08-1.94,5-3.19,2.42-5.29,1.23-4.13-4.34-4.11,3.01-4.64-1.08-6.64,2.98-6.11.72-13.55,6.06-15.57,1.33-4.69-1.32-3.98,1.6-5.07-2.02-4.12.89-2.76-4.55-3.67.22,2.42,5.81-12.21.33-5.7,2.88,1.23,4.65-3.36,5.64-10.96,2.98-.9,3.45-7.93,1.8.1,7.27-5.55,3.96-10.7,2.22-4.34,4.03-7.08-4.65-.08-3.02-5.3-3.03-3.13,1.51-4.44-2.99-8.89,2.03-3.15,6.14-6.12-3.94-4.69,2.31-4.04-2.61-1.88,2.13-9.26-2.52-5.41,2.6-11.47-2.16-2.39,4.36-3.37,1.05-2.11,3.79-4.51,3.57-9.73.57-2.09-3.48-10.38,2.32-7.64,2.87-.04,4.25-4.81.93-5.71-6.39-5.21-3.27.53-7.15-4.8-3.78-4.84-.97-9.29,4.88-4.16-2.09-3.89,4.6-9.71-2.44-5.68-7.72-9.87-.94-24.7,12.22-6.39-.3-2.99,4.58-7.63-.25-4.49-5.1-4.32-2.22-6.04,1.72-13.73-.42-1.48-5.22-3.09-1.9-9.67,2.4-4.3,2.8-1.32,3.84-3.58,1.2-4.23,4.18-5.47,2.54-3.39,3.84-2.91,10.17-2.01,1.85-2.62,7.36,2.58,3.36,1.36,7.03-4.42,1.74-3.25-1.84-1.61-4.41-7.52,1.46-.92,3.95-3.98,1.88-7.58-2.91-3.04-4.62,3.47-5.38-2.96-6.56-6.17.66-6.97-8.78-6.53-4.35-1.3-5.29-3.58-3.65-1.96-6.41-6.61-2.69-.88-2.55-6.38-4.36-8.95-.22-7.27-2.99-7.89-6.27-2.19-3.84-9.33-6.51-3.15-9.52-9.47-8.23-.15-8.77Z" fill-rule="evenodd"/>
    <path id="제주시" data-name="제주시" d="M776.78,54.87l-3.34,2.23.36,5.39,5.53.93,1.84,2.73,4,12.63-4.1,9.08-2.75,1.77-3.82-3.66-3.27,1.32-9.25-2.13-3.82-2.07.79-4.19-3.06-9.42,3.48-7.61,6.26-5.11-3.24-2.92.58-3.37,6.16-3.23,3.3,4.61,4.35,3.02ZM718.16,59.26l-2.87,3.33.82,3.08,6.48-1.35,6.53,5.28.16,4.58-3.85,7.91,1.85,5.77-4.01,3.66-4.79,1.58-.39,3.87-3.56-.53-9.09,3.18-4.14-.6-2.98,4.13-8.6,2.4-1.45,2.91-7.28,4.59-5.39,1.42-3.22,4.36-7.77,1.33-9.31,4.28-7.32,5.38-3.91.53-3.72,7.46-4.22-.13-10.09,2.72-7.37,5.43-6.17-2.12h-4.15l-4.98,7.4-5.34,2.09-8.86,8.6-7.33,4.64-11.72,2.09-7.4-.84-7.82-4.84-1.48-2.67-14.08,5.46-7.95-.07-8.98,3-11.7,6.76-17.8,14.72-8.65-1.88-5.33,2.88-1.54,5.02-17.23,2.63-1.95-1.48-7.04,4.24-1.43,5.92-7.06,2.07-10.34,1.01-17.1,8.94-7.01.61-7.09,1.94-9.52.24-10.81-2.32-18.46,11.86-7.57.15-7.02,2.65-8.28-.49-2.38,2.7-9.24-1.44-8.41,5.56-6.47-5.23-9.28,2.74-8.16-3.56-5.28,1.43-11.75-.74-8.52,2.83-2.25,2.4.75,4.8-1.38,4.38-7.47,5.78-10.77-1.46-8.22.62-1.88-1.69-10.33-1.42-4.66,1.28-10.01-3.48-5.15-.53-8.24,6.53-8.42-.51-6.57.88-9.96-3.5-12.08,12.41-5.35,7.02-5.32-1.02-11.99.75-5.64,4.7-3.7.62-3.97,13.15-4.92,3.86-1.78,3.69-5.46,2.21-.39,2.19-5.66,2.62-20.13,5.36-6.11,5.05-3.96,5.94,1.69,11.77-6.03-4.38-7.86-9.01-7.78-3.2-17.69-9.3-11.22-3.98-.37,5.38-11.37,3.83-5.41-.21-3.24,2.08.74,3.76-3.11,2.99-6.17-4.66-1.15-7.06,6.31-8.53-3.67-7,3.78-11.26-.44-8.46-3.6-.66-.5-5.53,2.88-2.54-3.62-3.75,5.65-6.33,12.14-7.43,2.4-12.51,4.76-1.83,2.98-4.41,5.81-4.06,4.68,1.02,4.8-4.11-.15-2.98,7.13-4.09,2.36-3.26-.62-4.55,4.61-2.97,3.88-6.05,9.33,1.05,4.05-6.97,4.76-.06.94-3.55,7.22-2.99,2.37-9.49,6.82-7.83,2.63-.1-.31-6.24,2.28-2.18-2.58-12.14,2.56-2.21,8.78,1.34,5.72-8.24,6.36-2.88,4.08,2.18,3.26-.89,8.71-5.73,4.16-4.69,4.04-7.99-2.25-7.16,4.31-3.96,3.44.26,7.85,3.19,7.1-3.15,1.32,2.32,5.05.64,2.33-4.16,5.73-2.69,4.66.21,2.63-5.69,5.52-2.13,9.04,1.69,8.61-6.68,3.54-.91,4.24-4.84,5.37-.04,3.01,6.11,5.94.97,3.34-2.97,3.4.94,3.32-5.72,5.47.49,8.14-6.3,2.93,1.74,12.24-2.53,4.24-3,6.91,1.44,2.03-3.55-.62-4.28,6.19.3,5.95-4.97,7.97-1.16,3.43.63,5.28-2.16,1.93-6.52,8.57-4.72,4.56.94,1.83,3.07,13.22,2.03,3.2-4.2,13.52,2.5-.16-4.43,3.48,1.74,7.64-4.58.7-5.23.42.29,1.84,4.21,6.96.39,1.69,3.57,3.73-2.12,2.64-5.16,3.4,3.82,3.75-3.22,3.98,2,1.51-3.21,4.65,3.61,5.07-.41,4.12-4.1,1.01-4.83,6.92-5.05,5.54,3.07,8.54-.75,2.2-2.49,13.34.55,6.24,1.78,2.08-5.04-2.54-1.84,1.15-3.81,3.34.07,5.96-11.86,3.94,2.84,4.34.81,7.47,8.34.97-1.78,1.8,3.99,3.02.73,7.04-2.61,2.14-7.78,4.16-.17,3.05,4.5,5.95-.54,7.36-4.55,6.99-.39,8.28-1.77,2.81,1.22,2.88-4.96,6.25-.06,3.8-3.07,5.79,3.18,3.04,3.78,2.99-4.22,5.14.91,6.48-1.87,3.79,2.54,3.23-1.56.58-7.82,3.29-.71,4.83,1.86,12.82-.52.5,2.62,8.83,3.43,4.55,5.13,10.25-2.66,4.63-4.24,10.93,3.1.69,4.98,3.78,4.47-2.37,3.36,1.48,5.3,7.38,4.29,4.04,6.56,2.9-.42,7.7,2.15,6.72,7.8,5.14.34,2.27-4.81,14.39-.3,2.38,3.51,4.87-1.31,3.88,1.18,7.47,5.49,1.74,3.63-.66,4.32Z" fill-rule="evenodd"/>
  </g>
</svg>
